<?xml version="1.0" encoding="utf-8"?>
<!-- Generator: Adobe Illustrator 18.1.0, SVG Export Plug-In . SVG Version: 6.00 Build 0)  -->
<svg version="1.1" id="Layer_1" xmlns="http://www.w3.org/2000/svg" xmlns:xlink="http://www.w3.org/1999/xlink" x="0px" y="0px"
	 viewBox="0 0 248.9 141.6" enable-background="new 0 0 248.9 141.6" xml:space="preserve">
<path fill="#809BB2" d="M31,48.4c5.4-7,32.4-40.9,65.6-32.9c6.8,1.6,12.7,4.7,17.9,8.5c7.3-5.2,41.4-28.5,67.6-6.6
	c2.6,2.2,5.3,5,8,8.5c9.9-15.2,27-15.5,37.1-0.9c10.1,14.6,9.6,38.9-1.3,52.6c14,14.2,13.7,22.6,13.3,25.4
	c-1.8,12-21.1,18.6-48.4,17.9c-9.2,6.2-23.8,14-42.4,16c-26.2,2.7-46.7-7.6-57-14.1c-24.5,16.8-49.1,12.6-59.7-6.6
	c-2.1-3.8-5.9-12.3-6-27.3C17,87.4,10.9,77.4,11.1,67.2c0.1-7.3,3.6-14.2,8.6-17.9C23.5,49.1,27.2,48.8,31,48.4z"/>
<path fill="#FFFFFF" d="M25.5,40.3c5.4-7,32.4-40.9,65.6-32.9c6.8,1.6,12.7,4.7,17.9,8.5c7.3-5.2,41.4-28.5,67.6-6.6
	c2.6,2.2,5.3,5,8,8.5c9.9-15.2,27-15.5,37.1-0.9c10.1,14.6,9.6,38.9-1.3,52.6c14,14.2,13.7,22.6,13.3,25.4
	c-1.8,12-21.1,18.6-48.4,17.9c-9.2,6.2-23.8,14-42.4,16c-26.2,2.7-46.7-7.6-57-14.1c-24.5,16.8-49.1,12.6-59.7-6.6
	c-2.1-3.8-5.9-12.3-6-27.3C11.5,79.2,5.4,69.3,5.6,59.1c0.1-7.3,3.6-14.2,8.6-17.9C17.9,40.9,21.7,40.6,25.5,40.3z"/>
<path fill="#D1E9FF" d="M26.5,43.3c5.4-7,32.4-40.9,65.6-32.9c6.8,1.6,12.7,4.7,17.9,8.5c7.3-5.2,41.4-28.5,67.6-6.6
	c2.6,2.2,5.3,5,8,8.5c9.9-15.2,27-15.5,37.1-0.9c10.1,14.6,9.6,38.9-1.3,52.6c14,14.2,13.7,22.6,13.3,25.4
	c-1.8,12-21.1,18.6-48.4,17.9c-9.2,6.2-23.8,14-42.4,16c-26.2,2.7-46.7-7.6-57-14.1c-24.5,16.8-49.1,12.6-59.7-6.6
	c-2.1-3.8-5.9-12.3-6-27.3C12.5,82.2,6.4,72.3,6.6,62.1c0.1-7.3,3.6-14.2,8.6-17.9C18.9,43.9,22.7,43.6,26.5,43.3z"/>
<path fill="#FFFFFF" stroke="#000000" stroke-miterlimit="10" d="M310.2,141.6"/>
</svg>
