<?xml version="1.0" encoding="utf-8"?>
<!-- Generator: Adobe Illustrator 18.1.0, SVG Export Plug-In . SVG Version: 6.00 Build 0)  -->
<svg version="1.1" id="Layer_1" xmlns="http://www.w3.org/2000/svg" xmlns:xlink="http://www.w3.org/1999/xlink" x="0px" y="0px"
	 viewBox="0 0 167.5 120.5" enable-background="new 0 0 167.5 120.5" xml:space="preserve">
<path fill="#809BB2" d="M9.9,64.3c-1.5-5.5-5.1-19,3.3-28.5c7.3-8.3,18.9-8,21.2-7.9C42,14.2,57.1,8.3,68.9,12.6
	c11.7,4.3,15.5,17,15.9,18.5c3-0.7,17.4-4,30.5,4.6c5.9,3.9,9.4,8.7,11.3,11.9c13.8-3,27.1,2.5,32.5,12.6
	c8.7,16.4-9.1,34.3-9.9,35.1c-11,10.8-28.5,13.6-45,7.9c-14,12.1-32.1,15.8-46.4,9.3c-9-4.1-14.1-11.1-16.6-15.2
	C36.9,95.5,15.7,85.8,9.9,64.3z"/>
<path fill="#FFFFFF" d="M9.9,57.3c-1.5-5.5-5.1-19,3.3-28.5c7.3-8.3,18.9-8,21.2-7.9C42,7.2,57.1,1.3,68.9,5.6
	c11.7,4.3,15.5,17,15.9,18.5c3-0.7,17.4-4,30.5,4.6c5.9,3.9,9.4,8.7,11.3,11.9c13.8-3,27.1,2.5,32.5,12.6
	c8.7,16.4-9.1,34.3-9.9,35.1c-11,10.8-28.5,13.6-45,7.9c-14,12.1-32.1,15.8-46.4,9.3c-9-4.1-14.1-11.1-16.6-15.2
	C36.9,88.5,15.7,78.8,9.9,57.3z"/>
<path fill="#D1E9FF" d="M9.9,60.3c-1.5-5.5-5.1-19,3.3-28.5c7.3-8.3,18.9-8,21.2-7.9C42,10.2,57.1,4.3,68.9,8.6
	c11.7,4.3,15.5,17,15.9,18.5c3-0.7,17.4-4,30.5,4.6c5.9,3.9,9.4,8.7,11.3,11.9c13.8-3,27.1,2.5,32.5,12.6
	c8.7,16.4-9.1,34.3-9.9,35.1c-11,10.8-28.5,13.6-45,7.9c-14,12.1-32.1,15.8-46.4,9.3c-9-4.1-14.1-11.1-16.6-15.2
	C36.9,91.5,15.7,81.8,9.9,60.3z"/>
</svg>
