<?xml version="1.0" encoding="utf-8"?>
<!-- Generator: Adobe Illustrator 18.1.0, SVG Export Plug-In . SVG Version: 6.00 Build 0)  -->
<svg version="1.1" id="Layer_1" xmlns="http://www.w3.org/2000/svg" xmlns:xlink="http://www.w3.org/1999/xlink" x="0px" y="0px"
	 viewBox="0 0 275 183.5" enable-background="new 0 0 275 183.5" xml:space="preserve">
<path fill="#809BB2" d="M90.1,149.5c-28.6,18.2-59.1,17.6-72.8,2.6c-6.5-7-13.5-21.9-7.3-35.8c5.9-13.4,20.3-17.3,22.5-17.9
	C30.1,75.7,40.1,57.9,53,54.8c2.2-0.5,8.5-1.6,17.2,3.3c0.9-2.6,14.1-38.8,46.4-45c4.5-0.9,18.7-3.6,33.1,4.6
	c15.5,8.9,20.2,24.3,21.2,27.8c3.6-2.1,20.5-11.2,38.4-4.6c3.9,1.4,19.6,7.3,20.5,19.9c0.7,10.1-8.6,17.5-9.9,18.5
	c28.2,0.7,48.3,12.2,49.7,24.5c1.5,13.6-20.1,26.4-25.8,29.8c-17.9,10.6-35.7,11-44.4,10.6c-21.6,28.2-54.4,40-80.1,30.5
	C103.5,168.9,94.4,156.6,90.1,149.5z"/>
<path fill="#FFFFFF" d="M90.1,140.5c-28.6,18.2-59.1,17.6-72.8,2.6c-6.5-7-13.5-21.9-7.3-35.8c5.9-13.4,20.3-17.3,22.5-17.9
	C30.1,66.7,40.1,48.9,53,45.8c2.2-0.5,8.5-1.6,17.2,3.3c0.9-2.6,14.1-38.8,46.4-45c4.5-0.9,18.7-3.6,33.1,4.6
	c15.5,8.9,20.2,24.3,21.2,27.8c3.6-2.1,20.5-11.2,38.4-4.6c3.9,1.4,19.6,7.3,20.5,19.9c0.7,10.1-8.6,17.5-9.9,18.5
	c28.2,0.7,48.3,12.2,49.7,24.5c1.5,13.6-20.1,26.4-25.8,29.8c-17.9,10.6-35.7,11-44.4,10.6c-21.6,28.2-54.4,40-80.1,30.5
	C103.5,159.9,94.4,147.6,90.1,140.5z"/>
<path fill="#D1E9FF" d="M90.1,144.5c-28.6,18.2-59.1,17.6-72.8,2.6c-6.5-7-13.5-21.9-7.3-35.8c5.9-13.4,20.3-17.3,22.5-17.9
	C30.1,70.7,40.1,52.9,53,49.8c2.2-0.5,8.5-1.6,17.2,3.3c0.9-2.6,14.1-38.8,46.4-45c4.5-0.9,18.7-3.6,33.1,4.6
	c15.5,8.9,20.2,24.3,21.2,27.8c3.6-2.1,20.5-11.2,38.4-4.6c3.9,1.4,19.6,7.3,20.5,19.9c0.7,10.1-8.6,17.5-9.9,18.5
	c28.2,0.7,48.3,12.2,49.7,24.5c1.5,13.6-20.1,26.4-25.8,29.8c-17.9,10.6-35.7,11-44.4,10.6c-21.6,28.2-54.4,40-80.1,30.5
	C103.5,163.9,94.4,151.6,90.1,144.5z"/>
</svg>
