<?xml version="1.0" encoding="utf-8"?>
<!-- Generator: Adobe Illustrator 18.1.0, SVG Export Plug-In . SVG Version: 6.00 Build 0)  -->
<svg version="1.1" id="Layer_1" xmlns="http://www.w3.org/2000/svg" xmlns:xlink="http://www.w3.org/1999/xlink" x="0px" y="0px"
	 viewBox="0 0 121.9 119" enable-background="new 0 0 121.9 119" xml:space="preserve">
<circle fill="#FFFF90" cx="61.7" cy="58.8" r="53.6"/>
<g>
	<path d="M27,56.1c0,0,0.2-0.4,0.6-1.1c0.2-0.3,0.5-0.8,0.8-1.2c0.3-0.4,0.7-0.9,1.2-1.4c0.5-0.5,1-1,1.6-1.6c0.6-0.5,1.3-1,2-1.5
		c0.4-0.3,0.8-0.5,1.1-0.7c0.4-0.2,0.8-0.4,1.2-0.6c0.4-0.2,0.9-0.4,1.3-0.5c0.4-0.1,0.9-0.3,1.4-0.4c0.5-0.1,0.9-0.2,1.4-0.3
		c0.5-0.1,0.9-0.1,1.4-0.2c0.5-0.1,0.9,0,1.4,0c0.4,0,0.9,0,1.3,0.1c0.9,0.1,1.7,0.3,2.5,0.5c0.8,0.2,1.5,0.5,2.1,0.8
		c1.3,0.6,2.2,1.2,2.9,1.7c0.6,0.5,1,0.8,1,0.8S51.8,50.3,51,50c-0.7-0.3-1.8-0.7-3-1c-0.6-0.2-1.3-0.3-2-0.4
		c-0.7-0.1-1.5-0.2-2.3-0.2c-0.8,0-1.6,0.1-2.4,0.1c-0.4,0.1-0.8,0.1-1.2,0.2L38.7,49c-0.4,0.1-0.8,0.2-1.2,0.3
		c-0.4,0.1-0.8,0.3-1.2,0.4c-0.8,0.3-1.5,0.7-2.2,1c-0.7,0.4-1.4,0.8-2,1.2c-0.6,0.4-1.2,0.8-1.7,1.2c-1,0.8-1.9,1.5-2.5,2
		C27.3,55.8,27,56.1,27,56.1z"/>
</g>
<g>
	<path d="M68.9,48c0,0,0.2-0.4,0.6-1.1c0.2-0.3,0.5-0.7,0.8-1.2c0.3-0.4,0.7-0.9,1.2-1.4c0.5-0.5,1-1,1.6-1.5c0.6-0.5,1.3-1,2-1.5
		c0.4-0.3,0.8-0.5,1.2-0.7c0.4-0.2,0.8-0.4,1.2-0.6c0.4-0.2,0.9-0.4,1.3-0.5c0.5-0.1,0.9-0.3,1.4-0.4c0.5-0.1,0.9-0.2,1.4-0.3
		c0.5,0,0.9-0.1,1.4-0.1c0.5-0.1,0.9,0,1.4,0c0.4,0,0.9,0,1.3,0.1c0.9,0.1,1.7,0.3,2.5,0.5c0.8,0.2,1.5,0.5,2.1,0.8
		c1.3,0.6,2.2,1.2,2.8,1.7c0.6,0.5,0.9,0.8,0.9,0.8s-0.4-0.2-1.1-0.5c-0.7-0.3-1.8-0.7-3-1c-0.6-0.2-1.3-0.3-2-0.4
		c-0.7-0.1-1.5-0.2-2.3-0.2c-0.8,0-1.6,0-2.4,0.1c-0.4,0.1-0.8,0.1-1.2,0.2L80.8,41c-0.4,0.1-0.8,0.2-1.2,0.3
		c-0.4,0.1-0.8,0.3-1.2,0.4c-0.8,0.3-1.5,0.6-2.2,1c-0.7,0.4-1.4,0.8-2,1.2c-0.6,0.4-1.2,0.8-1.7,1.2c-1.1,0.8-1.9,1.5-2.5,2
		C69.3,47.7,68.9,48,68.9,48z"/>
</g>
<ellipse opacity="5.000000e-02" fill="#FD17FF" cx="36.4" cy="64.4" rx="11.4" ry="10.3"/>
<ellipse opacity="5.000000e-02" fill="#FD17FF" cx="89.1" cy="56.1" rx="11.6" ry="12"/>
<g>
	<path d="M87.9,60.1c0,0-0.2,0.7-0.7,1.9c-0.3,0.6-0.6,1.3-1.1,2.1c-0.4,0.8-1,1.7-1.6,2.6c-0.6,0.9-1.4,1.9-2.3,2.9
		c-0.5,0.5-0.9,0.9-1.4,1.4c-0.5,0.5-1,0.9-1.6,1.4c-1.1,0.9-2.3,1.8-3.6,2.6l-1,0.6l-1,0.5c-0.7,0.3-1.4,0.7-2.1,1
		c-0.7,0.3-1.4,0.6-2.2,0.8c-0.7,0.2-1.5,0.4-2.2,0.6c-0.7,0.2-1.5,0.2-2.2,0.4c-0.4,0-0.7,0.1-1.1,0.1c-0.4,0-0.7,0-1.1,0.1
		c-1.4,0.1-2.9,0-4.2-0.2c-1.3-0.2-2.5-0.4-3.6-0.7c-2.2-0.6-3.9-1.4-5.1-2c-1.1-0.6-1.7-1.1-1.7-1.1s0.7,0.1,2,0.3
		c1.3,0.2,3.1,0.4,5.2,0.5c1.1,0,2.2,0,3.4,0c1.2-0.1,2.4-0.2,3.7-0.4c0.3-0.1,0.7-0.1,1-0.2c0.3-0.1,0.6-0.1,1-0.2
		c0.6-0.2,1.3-0.2,1.9-0.4c0.6-0.2,1.3-0.4,1.9-0.6c0.6-0.2,1.3-0.5,1.9-0.7c0.6-0.2,1.2-0.5,1.9-0.8l0.9-0.4l0.9-0.5
		c1.2-0.6,2.3-1.3,3.4-2c0.5-0.4,1.1-0.7,1.6-1.1c0.5-0.4,1-0.8,1.5-1.1c0.9-0.8,1.8-1.5,2.6-2.2c0.8-0.7,1.5-1.4,2.1-2
		c0.6-0.6,1.2-1.2,1.6-1.6c0.4-0.5,0.8-0.8,1-1.1C87.8,60.2,87.9,60.1,87.9,60.1z"/>
</g>
</svg>
