<?xml version="1.0" encoding="utf-8"?>
<!-- Generator: Adobe Illustrator 18.1.0, SVG Export Plug-In . SVG Version: 6.00 Build 0)  -->
<svg version="1.1" id="Layer_1" xmlns="http://www.w3.org/2000/svg" xmlns:xlink="http://www.w3.org/1999/xlink" x="0px" y="0px"
	 viewBox="0 0 189.8 194.2" enable-background="new 0 0 189.8 194.2" xml:space="preserve">
<path fill="#FFFFCD" stroke="#FFFF90" stroke-miterlimit="10" d="M134.2,37.4l17.9-11.2l-4.1,25l-4.7,7.6c-4-4.9-8.8-9.2-14.4-12.7
	c-27.5-17.2-63.8-8.8-81,18.7c-17.2,27.5-8.8,63.8,18.7,81c0.6,0.4,1.2,0.7,1.8,1.1l17.3,8.1l12.1,0.4l-3.8,23L79,165.2l-20.4,8
	l4.9-21l-1.8,2.1l-25.5,4.9l5.9-22.1l-24.9-2.9l14.4-16.2l-18.8-11.8L29,94.7L14.2,81.1l16-6.3L18.3,55.3l18.9,2.8l-5.8-23.8
	l19.8,6.9L52,16.5l18.9,11.8l7.3-23.4l13.1,17.6L106.6,9l9.3,19.6l13.7-16.4L134.2,37.4z"/>
<path fill="#FCF983" d="M134.5,41.9l17.9-11.2l-4.1,25l-4.7,7.6c-4-4.9-8.8-9.2-14.4-12.7c-27.5-17.2-63.8-8.8-81,18.7
	c-17.2,27.5-8.8,63.8,18.7,81c0.6,0.4,1.2,0.7,1.8,1.1l17.3,8.1l12.1,0.4l-3.8,23l-14.8-12.9l-20.4,8l4.9-21l-1.8,2.1l-25.5,4.9
	l5.9-22.1l-24.9-2.9l14.4-16.2l-18.8-11.8l16.4-11.6L14.4,85.6l16-6.3L18.5,59.8l18.9,2.8l-5.8-23.8l19.8,6.9L52.2,21l18.9,11.8
	l7.3-23.4L91.6,27l15.3-13.6l9.3,19.6l13.7-16.4L134.5,41.9z"/>
<path fill="#FFFFCD" stroke="#FFFF90" stroke-miterlimit="10" d="M62.1,157.5l-18,11l4.4-24.9l4.8-7.5c3.9,4.9,8.7,9.3,14.3,12.9
	c27.3,17.5,63.7,9.5,81.2-17.9c17.5-27.3,9.5-63.7-17.9-81.2c-0.6-0.4-1.2-0.7-1.8-1.1l-17.2-8.3l-12.1-0.5l4.1-22.9l14.7,13.1
	l20.5-7.8l-5.1,21l1.8-2.1l25.6-4.6l-6.1,22l24.9,3.2l-14.5,16.1l18.7,12l-16.5,11.4l14.7,13.8l-16.1,6.2l11.7,19.6l-18.9-2.9
	l5.5,23.9l-19.7-7.1l-1,24.7l-18.8-12l-7.5,23.3l-12.9-17.8l-15.5,13.4l-9.1-19.7l-13.9,16.3L62.1,157.5z"/>
<path fill="#FCF983" d="M64,159.6l-17.4,11.9l3-25.1l4.4-7.8c4.2,4.7,9.2,8.8,15,12.1c28.2,16,64.1,6.1,80.1-22.2
	c16-28.2,6.1-64.1-22.2-80.1c-0.6-0.3-1.2-0.7-1.8-1l-17.6-7.4l-12.1,0.1l2.8-23.1l15.3,12.3l20-8.9l-4,21.2l1.7-2.2l25.3-6
	l-4.9,22.3l25,1.8l-13.6,16.8l19.3,11l-15.9,12.3l15.4,12.9l-15.7,7l12.7,19l-19-1.9l6.8,23.5l-20-6.1l0.3,24.7l-19.4-11l-6.3,23.7
	l-13.9-17l-14.7,14.3l-10.1-19.1l-13,17L64,159.6z"/>
</svg>
